<?xml version="1.0" encoding="utf-8"?>
<!-- Generator: Adobe Illustrator 22.0.1, SVG Export Plug-In . SVG Version: 6.00 Build 0)  -->
<svg version="1.1" id="Capa_1" xmlns="http://www.w3.org/2000/svg" xmlns:xlink="http://www.w3.org/1999/xlink" x="0px" y="0px"
	 viewBox="0 0 211 206" style="enable-background:new 0 0 211 206;" xml:space="preserve">
<style type="text/css">
	.st0{fill-rule:evenodd;clip-rule:evenodd;fill:#FFFFFF;}
	.st1{fill-rule:evenodd;clip-rule:evenodd;fill:#BABAC0;stroke:#FFFFFF;stroke-width:17.8466;stroke-miterlimit:2.6131;}
	.st2{fill-rule:evenodd;clip-rule:evenodd;fill:#BABAC0;}
	.st3{fill-rule:evenodd;clip-rule:evenodd;fill:#BF0811;stroke:#BF0811;stroke-width:1.5681;stroke-miterlimit:2.6131;}
	.st4{fill-rule:evenodd;clip-rule:evenodd;fill:#009045;stroke:#009045;stroke-width:1.5681;stroke-miterlimit:2.6131;}
	.st5{fill-rule:evenodd;clip-rule:evenodd;fill:#FFFFFF;stroke:#FFFFFF;stroke-width:0.6185;stroke-miterlimit:2.6131;}
	.st6{fill:none;stroke:#FFFFFF;stroke-width:0.6185;stroke-miterlimit:2.6131;}
	.st7{fill-rule:evenodd;clip-rule:evenodd;}
	.st8{fill:none;stroke:#000000;stroke-width:0.6185;stroke-miterlimit:2.6131;}
</style>
<g>
	<polygon class="st0" points="9.9,6.5 202.6,6.5 202.6,199.3 9.9,199.3 9.9,6.5 	"/>
	<polygon class="st1" points="18.8,16.1 193.8,16.1 193.8,189.6 18.8,189.6 18.8,16.1 	"/>
	<polygon class="st2" points="18.7,16.2 193.7,16.2 193.7,189.7 18.7,189.7 18.7,16.2 	"/>
	<path class="st3" d="M130,32c29.9,10,51.4,38,51.4,70.9c0,33-21.5,61-51.4,70.9V32L130,32z"/>
	<path class="st4" d="M82.3,32v142.1c-30.1-9.8-51.8-37.9-51.8-71.1c0-32.7,21.2-60.5,50.7-70.7L82.3,32L82.3,32z"/>
	<polygon class="st0" points="82.2,15.9 129.9,15.9 129.9,190 82.2,190 82.2,15.9 	"/>
	<polygon class="st5" points="144,73.3 144,133.2 159.6,133.2 159.6,73.3 144,73.3 	"/>
	<path class="st0" d="M42.7,73.3v59.9h15.6v-23.8c7.1,0,9.9,0,9.9,0c8.6-1.7,9.5-9,9.5-9V82.9c-0.5-8.4-9.3-9.7-9.3-9.7H42.7
		L42.7,73.3L42.7,73.3z M59,82.6v13.6c4.9-0.1,5-2.9,5-2.9V87C64.2,82.1,59,82.6,59,82.6L59,82.6z"/>
	<path class="st6" d="M42.7,73.3v59.9h15.6v-23.8c7.1,0,9.9,0,9.9,0c8.6-1.7,9.5-9,9.5-9V82.9c-0.5-8.4-9.3-9.7-9.3-9.7H42.7
		 M59,82.6v13.6c4.9-0.1,5-2.9,5-2.9V87C64.2,82.1,59,82.6,59,82.6L59,82.6z"/>
	<path class="st7" d="M88.8,50.5v59.9h15.6V85c6.9-0.3,5.5,4.7,5.5,4.7v20.7h15.8V86.8c1.1-4.7-4.8-7.9-4.8-7.9
		c4.8-2.6,4.5-8.4,4.5-8.4V60.1c0-10-11.1-9.7-11.1-9.7H88.8L88.8,50.5L88.8,50.5z M104.9,60.1v13.6c4.9-0.1,5-2.9,5-2.9v-6.4
		C110.1,59.6,104.9,60.1,104.9,60.1L104.9,60.1z"/>
	<path class="st8" d="M88.8,50.5v59.9h15.6V85c6.9-0.3,5.5,4.7,5.5,4.7v20.7h15.8V86.8c1.1-4.7-4.8-7.9-4.8-7.9
		c4.8-2.6,4.5-8.4,4.5-8.4V60.1c0-10-11.1-9.7-11.1-9.7H88.8 M104.9,60.1v13.6c4.9-0.1,5-2.9,5-2.9v-6.4
		C110.1,59.6,104.9,60.1,104.9,60.1L104.9,60.1z"/>
</g>
</svg>
