<?xml version="1.0" encoding="UTF-8" standalone="no"?>
<svg
   xmlns:dc="http://purl.org/dc/elements/1.1/"
   xmlns:cc="http://creativecommons.org/ns#"
   xmlns:rdf="http://www.w3.org/1999/02/22-rdf-syntax-ns#"
   xmlns:svg="http://www.w3.org/2000/svg"
   xmlns="http://www.w3.org/2000/svg"
   xmlns:sodipodi="http://sodipodi.sourceforge.net/DTD/sodipodi-0.dtd"
   xmlns:inkscape="http://www.inkscape.org/namespaces/inkscape"
   height="23.6"
   style="overflow:visible;enable-background:new 0 0 32 23.6"
   viewBox="0 0 32 23.6"
   width="32"
   xml:space="preserve"
   version="1.1"
   id="svg877"
   sodipodi:docname="iconfinder_Paper_Plane_381589 (2).svg"
   inkscape:version="0.92.4 (unknown)"><metadata
     id="metadata883"><rdf:RDF><cc:Work
         rdf:about=""><dc:format>image/svg+xml</dc:format><dc:type
           rdf:resource="http://purl.org/dc/dcmitype/StillImage" /></cc:Work></rdf:RDF></metadata><defs
     id="defs881" /><sodipodi:namedview
     pagecolor="#ffffff"
     bordercolor="#666666"
     borderopacity="1"
     objecttolerance="10"
     gridtolerance="10"
     guidetolerance="10"
     inkscape:pageopacity="0"
     inkscape:pageshadow="2"
     inkscape:window-width="1301"
     inkscape:window-height="744"
     id="namedview879"
     showgrid="false"
     inkscape:snap-to-guides="true"
     inkscape:zoom="54.977552"
     inkscape:cx="13.320842"
     inkscape:cy="9.3948556"
     inkscape:window-x="65"
     inkscape:window-y="24"
     inkscape:window-maximized="1"
     inkscape:current-layer="svg877" /><ellipse
     style="fill:#0000ff;fill-opacity:1;stroke:#000000;stroke-width:0.04824711;stroke-linecap:butt;stroke-linejoin:round;stroke-miterlimit:4;stroke-dasharray:none;stroke-opacity:1;paint-order:markers fill stroke"
     id="path922"
     cx="16.639107"
     cy="11.247727"
     rx="11.248295"
     ry="10.36441" /><path
     style="fill:#00aad4;fill-opacity:1;stroke:#000000;stroke-width:0.00245833;stroke-linecap:butt;stroke-linejoin:round;stroke-miterlimit:4;stroke-dasharray:none;stroke-opacity:1;paint-order:markers fill stroke"
     d="m 12.704113,15.803766 c -0.515594,-1.080797 -0.928022,-1.977828 -0.916505,-1.993403 0.04526,-0.06121 11.605228,-9.1658057 11.637672,-9.1658057 0.01902,0 -2.168759,2.1882208 -4.861759,4.8627127 l -4.89636,4.862713 -0.0128,1.699435 -0.0128,1.699435 z"
     id="path928"
     inkscape:connector-curvature="0" /><g
     id="g914"
     transform="matrix(0.92550261,0,0,0.87253251,0.74850904,2.2484524)"><path
       inkscape:connector-curvature="0"
       id="path881"
       d="m 16.877635,15.871725 c -1.629943,-1.04013 -2.969755,-1.909778 -2.977368,-1.932551 -0.01436,-0.04296 10.44175,-11.0793667 10.470058,-11.0511321 0.0087,0.00879 -0.961685,3.2541906 -2.156644,7.2120181 -1.19496,3.957826 -2.203797,7.302674 -2.24186,7.432994 -0.03807,0.13032 -0.08303,0.235341 -0.09993,0.23338 -0.01689,-0.0019 -1.364313,-0.85458 -2.994253,-1.894709 z"
       style="fill:#aaeeff;fill-opacity:1;stroke:#000000;stroke-width:0.00225954;stroke-linecap:butt;stroke-linejoin:round;stroke-miterlimit:4;stroke-dasharray:none;stroke-opacity:1;paint-order:markers fill stroke" /><path
       inkscape:connector-curvature="0"
       id="path906"
       d="M 3.8185833,11.519167 24.213685,1.5174011 19.11491,17.684639 12.422767,13.574325 v 4.110314 L 10.192052,12.889273 23.492291,2.0603055 12.422767,13.574325 v 4.110314 l 2.843129,-2.17819 3.849014,2.17819 5.098775,-16.1672379 -20.3951017,10.0017659 6.3734687,1.370106 2.230715,4.795366 -2.230715,-4.795366 z"
       style="fill:none;stroke:#000000;stroke-width:0;stroke-linecap:butt;stroke-linejoin:miter;stroke-miterlimit:4;stroke-dasharray:none;stroke-opacity:1" /><path
       inkscape:connector-curvature="0"
       id="path915"
       d="m 12.903724,14.318858 v 3.840655 l 2.556652,-2.035289 v 0 0 0 z"
       style="fill:none;stroke:#000000;stroke-width:0;stroke-linecap:butt;stroke-linejoin:miter;stroke-miterlimit:4;stroke-dasharray:none;stroke-opacity:1" /><path
       sodipodi:nodetypes="ccccccccccccccc"
       inkscape:connector-curvature="0"
       id="path917"
       d="M 24.533716,2.6811838 19.948698,17.787762 13.930862,13.947107 v 3.840655 l -2.005946,-4.480764 -5.731272,-1.280219 18.340072,-9.3455952 -12.6088,10.6258142 2.005946,4.480764 3.665985,-1.502614 -1.593261,-1.00948 3.945112,2.512094 4.5353,-15.0623832 -10.567814,11.1688972 z"
       style="fill:#ffffff;stroke:#000000;stroke-width:0.1;stroke-linecap:butt;stroke-linejoin:miter;stroke-miterlimit:4;stroke-dasharray:none;stroke-opacity:1" /><path
       inkscape:connector-curvature="0"
       id="path891"
       d="M 9.1208118,12.621523 C 7.6229055,12.285431 6.3977197,12.00503 6.3981767,11.998409 6.3993243,11.981782 23.991116,3.0231251 24.001746,3.0337543 24.018478,3.0504871 11.931894,13.221048 11.888472,13.226773 c -0.02431,0.0032 -1.269754,-0.269157 -2.7676602,-0.60525 z"
       style="fill:#ffffff;fill-opacity:1;stroke:#000000;stroke-width:0.00110485;stroke-linecap:butt;stroke-linejoin:round;stroke-miterlimit:4;stroke-dasharray:none;stroke-opacity:1;paint-order:markers fill stroke" /><path
       inkscape:connector-curvature="0"
       id="path893"
       d="M 9.1208118,12.621849 C 7.6229055,12.285804 6.3976497,12.005348 6.3980212,11.998614 c 3.714e-4,-0.0067 0.907733,-0.473817 2.0163591,-1.037962 1.1086261,-0.564145 5.0673267,-2.5804693 8.7971127,-4.48072 3.729786,-1.9002509 6.785463,-3.4509678 6.790393,-3.4460376 0.0082,0.00819 -1.515447,1.2948627 -9.384424,7.9249466 -1.476638,1.244156 -2.704683,2.264779 -2.72899,2.26805 -0.02431,0.0033 -1.269754,-0.268997 -2.7676602,-0.605042 z"
       style="fill:#aaeeff;fill-opacity:1;stroke:#000000;stroke-width:0.00110485;stroke-linecap:butt;stroke-linejoin:round;stroke-miterlimit:4;stroke-dasharray:none;stroke-opacity:1;paint-order:markers fill stroke" /><path
       inkscape:connector-curvature="0"
       id="path897"
       d="m 13.981105,15.878026 v -1.82517 l 0.104961,0.06549 c 0.05773,0.03602 0.50768,0.323633 0.999893,0.639139 0.492213,0.315506 1.226129,0.7849 1.630924,1.043097 0.495252,0.315895 0.726123,0.474974 0.70582,0.486336 -0.0231,0.01293 -1.505001,0.622776 -3.413977,1.404959 -0.02196,0.009 -0.02762,-0.362412 -0.02762,-1.813852 z"
       style="fill:#00ccff;fill-opacity:1;stroke:#000000;stroke-width:0.00110485;stroke-linecap:butt;stroke-linejoin:round;stroke-miterlimit:4;stroke-dasharray:none;stroke-opacity:1;paint-order:markers fill stroke" /></g></svg>